<svg xmlns="http://www.w3.org/2000/svg" viewBox="0 0 1200 630" role="img" aria-labelledby="title desc">
  <title id="title">Lerngesellschaft / Learning Society</title>
  <desc id="desc">A bilingual social preview card for the manifesto on relational learning.</desc>
  <rect width="1200" height="630" fill="#ffffff"/>
  <g fill="none" stroke="#1a3a5e" stroke-linecap="round" stroke-width="1.4" opacity="0.28">
    <path d="M80 332 C172 265 245 272 322 346 S493 424 592 315 763 198 904 288 1079 361 1132 307"/>
    <path d="M122 198 C228 278 318 218 407 161 S606 104 703 192 848 331 1034 190"/>
    <path d="M163 461 C267 377 369 487 493 416 S687 254 807 384 982 500 1106 421"/>
  </g>
  <g fill="#1a3a5e" opacity="0.72">
    <circle cx="80" cy="332" r="5"/>
    <circle cx="322" cy="346" r="5"/>
    <circle cx="592" cy="315" r="7"/>
    <circle cx="904" cy="288" r="5"/>
    <circle cx="1132" cy="307" r="5"/>
    <circle cx="122" cy="198" r="4"/>
    <circle cx="407" cy="161" r="5"/>
    <circle cx="703" cy="192" r="5"/>
    <circle cx="1034" cy="190" r="4"/>
    <circle cx="163" cy="461" r="4"/>
    <circle cx="493" cy="416" r="5"/>
    <circle cx="807" cy="384" r="5"/>
    <circle cx="1106" cy="421" r="4"/>
  </g>
  <rect x="96" y="95" width="36" height="4" fill="#9a3a14"/>
  <text x="96" y="232" fill="#050505" font-family="Georgia, 'Times New Roman', serif" font-size="68">Lerngesellschaft</text>
  <text x="96" y="300" fill="#050505" font-family="Georgia, 'Times New Roman', serif" font-size="68">Learning Society</text>
  <text x="100" y="377" fill="#5d574e" font-family="Georgia, 'Times New Roman', serif" font-size="30">A manifesto for relational learning</text>
  <text x="100" y="442" fill="#5d574e" font-family="Georgia, 'Times New Roman', serif" font-size="25" font-style="italic">Jonas Hertner - Zurich - 2026</text>
</svg>
